<svg xmlns="http://www.w3.org/2000/svg" xmlns:xlink="http://www.w3.org/1999/xlink" version="1.1" width="1000" height="1000" viewBox="0 0 1000 1000" xml:space="preserve">
<desc>Created with Fabric.js 3.5.0</desc>
<defs>
</defs>
<rect x="0" y="0" width="100%" height="100%" fill="#ffffff"/>
<g transform="matrix(5.1136 0 0 5.1136 -329.8295 151.2619)" id="151750">
<g style="" vector-effect="non-scaling-stroke">
		<g transform="matrix(1 0 0 1 -33.295 0.74)" id="logoipsum">
<path style="stroke: none; stroke-width: 1; stroke-dasharray: none; stroke-linecap: butt; stroke-dashoffset: 0; stroke-linejoin: miter; stroke-miterlimit: 4; is-custom-font: none; font-file-url: none; fill: rgb(57,65,73); fill-rule: nonzero; opacity: 1;" transform=" translate(-55.595, -50.74)" d="M 53.73 45.71 c 0.36 0 0.48 0.13 0.48 0.48 v 7.92 h 4.07 c 0.35 0 0.48 0.13 0.48 0.48 v 0.7 c 0 0.35 -0.13 0.48 -0.48 0.48 H 52.92 c -0.35 0 -0.49 -0.13 -0.49 -0.48 v -9.1 c 0 -0.35 0.14 -0.48 0.49 -0.48 Z" stroke-linecap="round"/>
</g>
		<g transform="matrix(1 0 0 1 -22.58 0.74)" id="logoipsum">
<path style="stroke: none; stroke-width: 1; stroke-dasharray: none; stroke-linecap: butt; stroke-dashoffset: 0; stroke-linejoin: miter; stroke-miterlimit: 4; is-custom-font: none; font-file-url: none; fill: rgb(57,65,73); fill-rule: nonzero; opacity: 1;" transform=" translate(-66.31, -50.74)" d="M 62.31 49.2 c 0 -2.31 1.46 -3.7 4 -3.7 s 4 1.39 4 3.7 v 3.08 c 0 2.31 -1.47 3.7 -4 3.7 s -4 -1.39 -4 -3.7 Z m 6.32 0 c 0 -1.3 -0.81 -2 -2.27 -2 s -2.26 0.71 -2.26 2 V 52.3 c 0 1.31 0.8 2 2.26 2 s 2.27 -0.72 2.27 -2 Z" stroke-linecap="round"/>
</g>
		<g transform="matrix(1 0 0 1 -10.2196 0.7046)" id="logoipsum">
<path style="stroke: none; stroke-width: 1; stroke-dasharray: none; stroke-linecap: butt; stroke-dashoffset: 0; stroke-linejoin: miter; stroke-miterlimit: 4; is-custom-font: none; font-file-url: none; fill: rgb(57,65,73); fill-rule: nonzero; opacity: 1;" transform=" translate(-78.6704, -50.7046)" d="M 82.22 50.26 c 0.39 0 0.48 0.13 0.48 0.48 v 1.9 A 3 3 0 0 1 81.64 55 a 4.36 4.36 0 0 1 -3 0.94 c -2.59 0 -4 -1.39 -4 -3.7 v -3.1 c 0 -2.28 1.46 -3.68 4 -3.68 c 2 0 3.3 0.79 3.85 2.37 a 0.43 0.43 0 0 1 -0.3 0.62 l -0.78 0.27 c -0.34 0.12 -0.48 0.05 -0.6 -0.3 a 2.06 2.06 0 0 0 -2.17 -1.3 c -1.47 0 -2.27 0.71 -2.27 2 V 52.3 c 0 1.31 0.81 2 2.27 2 S 81 53.63 81 52.65 v -0.74 H 78.83 c -0.36 0 -0.49 -0.14 -0.49 -0.49 v -0.68 c 0 -0.35 0.13 -0.48 0.49 -0.48 Z" stroke-linecap="round"/>
</g>
		<g transform="matrix(1 0 0 1 1.94 0.74)" id="logoipsum">
<path style="stroke: none; stroke-width: 1; stroke-dasharray: none; stroke-linecap: butt; stroke-dashoffset: 0; stroke-linejoin: miter; stroke-miterlimit: 4; is-custom-font: none; font-file-url: none; fill: rgb(57,65,73); fill-rule: nonzero; opacity: 1;" transform=" translate(-90.83, -50.74)" d="M 86.83 49.2 c 0 -2.31 1.46 -3.7 4 -3.7 s 4 1.39 4 3.7 v 3.08 c 0 2.31 -1.47 3.7 -4 3.7 s -4 -1.39 -4 -3.7 Z m 6.31 0 c 0 -1.3 -0.81 -2 -2.26 -2 s -2.27 0.71 -2.27 2 V 52.3 c 0 1.31 0.81 2 2.27 2 s 2.26 -0.72 2.26 -2 Z" stroke-linecap="round"/>
</g>
		<g transform="matrix(1 0 0 1 11.16 0.74)" id="logoipsum">
<path style="stroke: none; stroke-width: 1; stroke-dasharray: none; stroke-linecap: butt; stroke-dashoffset: 0; stroke-linejoin: miter; stroke-miterlimit: 4; is-custom-font: none; font-file-url: none; fill: rgb(57,65,73); fill-rule: nonzero; opacity: 1;" transform=" translate(-100.05, -50.74)" d="M 99.54 46 c 0 -0.22 0.07 -0.29 0.29 -0.29 h 0.46 c 0.22 0 0.27 0.07 0.27 0.29 v 9.48 c 0 0.22 0 0.29 -0.27 0.29 h -0.46 c -0.22 0 -0.29 -0.07 -0.29 -0.29 Z" stroke-linecap="round"/>
</g>
		<g transform="matrix(1 0 0 1 20.34 0.74)" id="logoipsum">
<path style="stroke: none; stroke-width: 1; stroke-dasharray: none; stroke-linecap: butt; stroke-dashoffset: 0; stroke-linejoin: miter; stroke-miterlimit: 4; is-custom-font: none; font-file-url: none; fill: rgb(57,65,73); fill-rule: nonzero; opacity: 1;" transform=" translate(-109.23, -50.74)" d="M 109.67 45.71 a 3.14 3.14 0 1 1 0 6.28 h -3 v 3.49 c 0 0.22 -0.05 0.29 -0.26 0.29 h -0.47 c -0.21 0 -0.29 -0.07 -0.29 -0.29 V 46 c 0 -0.22 0.08 -0.29 0.29 -0.29 Z M 109.58 51 a 2.18 2.18 0 1 0 0 -4.36 h -3 V 51 Z" stroke-linecap="round"/>
</g>
		<g transform="matrix(1 0 0 1 31.7567 0.7558)" id="logoipsum">
<path style="stroke: none; stroke-width: 1; stroke-dasharray: none; stroke-linecap: butt; stroke-dashoffset: 0; stroke-linejoin: miter; stroke-miterlimit: 4; is-custom-font: none; font-file-url: none; fill: rgb(57,65,73); fill-rule: nonzero; opacity: 1;" transform=" translate(-120.6467, -50.7558)" d="M 120.62 45.51 a 3.61 3.61 0 0 1 3.72 2.18 c 0.08 0.16 0 0.29 -0.16 0.37 l -0.44 0.2 c -0.18 0.07 -0.25 0.06 -0.36 -0.13 a 2.72 2.72 0 0 0 -2.76 -1.64 c -1.69 0 -2.61 0.67 -2.61 1.87 a 1.52 1.52 0 0 0 1.27 1.54 a 6.79 6.79 0 0 0 1.66 0.32 a 6.88 6.88 0 0 1 2 0.41 A 2.25 2.25 0 0 1 124.5 53 c 0 1.87 -1.36 3 -3.86 3 a 3.61 3.61 0 0 1 -3.83 -2.43 a 0.27 0.27 0 0 1 0.17 -0.38 l 0.44 -0.16 a 0.27 0.27 0 0 1 0.36 0.17 A 2.86 2.86 0 0 0 120.64 55 c 1.89 0 2.82 -0.66 2.82 -2 a 1.49 1.49 0 0 0 -1.17 -1.53 a 7 7 0 0 0 -1.59 -0.28 l -1.08 -0.14 a 9.5 9.5 0 0 1 -1 -0.27 a 2.63 2.63 0 0 1 -0.89 -0.47 a 2.44 2.44 0 0 1 -0.8 -1.91 C 117 46.65 118.31 45.51 120.62 45.51 Z" stroke-linecap="round"/>
</g>
		<g transform="matrix(1 0 0 1 43.78 0.845)" id="logoipsum">
<path style="stroke: none; stroke-width: 1; stroke-dasharray: none; stroke-linecap: butt; stroke-dashoffset: 0; stroke-linejoin: miter; stroke-miterlimit: 4; is-custom-font: none; font-file-url: none; fill: rgb(57,65,73); fill-rule: nonzero; opacity: 1;" transform=" translate(-132.67, -50.845)" d="M 129.89 52.35 a 2.78 2.78 0 0 0 5.55 0 V 46 c 0 -0.22 0.07 -0.29 0.29 -0.29 h 0.46 c 0.22 0 0.29 0.07 0.29 0.29 v 6.34 c 0 2.27 -1.34 3.64 -3.81 3.64 s -3.81 -1.37 -3.81 -3.64 V 46 c 0 -0.22 0.07 -0.29 0.28 -0.29 h 0.47 c 0.21 0 0.28 0.07 0.28 0.29 Z" stroke-linecap="round"/>
</g>
		<g transform="matrix(1 0 0 1 57.12 0.7392)" id="logoipsum">
<path style="stroke: none; stroke-width: 1; stroke-dasharray: none; stroke-linecap: butt; stroke-dashoffset: 0; stroke-linejoin: miter; stroke-miterlimit: 4; is-custom-font: none; font-file-url: none; fill: rgb(57,65,73); fill-rule: nonzero; opacity: 1;" transform=" translate(-146.01, -50.7391)" d="M 150.28 45.71 c 0.22 0 0.29 0.07 0.29 0.29 v 9.48 c 0 0.22 -0.07 0.29 -0.29 0.29 h -0.42 c -0.21 0 -0.28 -0.07 -0.28 -0.29 V 49.71 a 18.55 18.55 0 0 1 0.17 -2.51 h -0.06 a 18 18 0 0 1 -1.09 2.21 l -2.15 3.79 a 0.35 0.35 0 0 1 -0.33 0.22 h -0.28 a 0.37 0.37 0 0 1 -0.34 -0.22 l -2.18 -3.83 a 16.07 16.07 0 0 1 -1 -2.18 h -0.06 a 21.76 21.76 0 0 1 0.16 2.53 v 5.76 c 0 0.22 -0.07 0.29 -0.29 0.29 h -0.39 c -0.22 0 -0.29 -0.07 -0.29 -0.29 V 46 c 0 -0.22 0.07 -0.29 0.29 -0.29 h 0.36 a 0.4 0.4 0 0 1 0.4 0.23 L 146 52.16 L 149.48 46 c 0.11 -0.21 0.17 -0.24 0.39 -0.24 Z" stroke-linecap="round"/>
</g>
		<g transform="matrix(1 0 0 1 -52.3193 0.005)" id="logoipsum">
<path style="stroke: none; stroke-width: 1; stroke-dasharray: none; stroke-linecap: butt; stroke-dashoffset: 0; stroke-linejoin: miter; stroke-miterlimit: 4; is-custom-font: none; font-file-url: none; fill: rgb(57,65,73); fill-rule: nonzero; opacity: 1;" transform=" translate(-36.5707, -50.005)" d="M 35.94 53.55 v 7.23 a 1 1 0 0 1 -2.09 0 V 53.56 a 1.77 1.77 0 0 0 1 0.34 A 1.72 1.72 0 0 0 35.94 53.55 Z m 8.9 -2.09 a 1 1 0 0 0 -1 1 v 1.26 a 1 1 0 1 0 2.09 0 V 52.51 A 1 1 0 0 0 44.84 51.46 Z M 31.58 56.29 a 1.8 1.8 0 0 1 -1 -0.34 V 63.2 a 1.05 1.05 0 0 0 2.1 0 V 56 A 1.83 1.83 0 0 1 31.58 56.29 Z m 10 -7 a 1 1 0 0 0 -1.05 1 v 5.57 a 1.05 1.05 0 1 0 2.1 0 V 50.36 A 1 1 0 0 0 41.53 49.31 Z m -3.32 2.14 a 1.83 1.83 0 0 1 -1.05 -0.34 v 7.27 a 1.05 1.05 0 1 0 2.1 0 V 51.1 A 1.77 1.77 0 0 1 38.21 51.45 Z M 29.31 57 V 36.69 a 0.94 0.94 0 0 0 -0.94 -0.93 h -0.22 a 0.94 0.94 0 0 0 -0.94 0.93 V 57 a 0.94 0.94 0 0 0 0.94 0.94 h 0.22 A 0.94 0.94 0 0 0 29.31 57 Z m 2.38 -1.48 h -0.22 a 0.94 0.94 0 0 1 -0.94 -0.94 V 39.11 a 0.94 0.94 0 0 1 0.94 -0.93 h 0.22 a 0.94 0.94 0 0 1 0.94 0.93 V 54.6 A 0.94 0.94 0 0 1 31.69 55.54 Z M 35 53.14 h -0.23 a 0.93 0.93 0 0 1 -0.93 -0.93 V 41.51 a 0.93 0.93 0 0 1 0.93 -0.94 H 35 a 0.94 0.94 0 0 1 0.93 0.94 v 10.7 A 0.93 0.93 0 0 1 35 53.14 Z m 3.31 -2.45 H 38.1 a 0.94 0.94 0 0 1 -0.94 -0.93 V 44 A 0.94 0.94 0 0 1 38.1 43 h 0.22 a 0.94 0.94 0 0 1 0.94 0.94 v 5.8 A 0.94 0.94 0 0 1 38.32 50.69 Z m 3.32 -2.15 h -0.22 a 0.94 0.94 0 0 1 -0.94 -0.94 V 46.11 a 0.94 0.94 0 0 1 0.94 -0.93 h 0.22 a 0.94 0.94 0 0 1 0.94 0.93 V 47.6 A 0.94 0.94 0 0 1 41.64 48.54 Z" stroke-linecap="round"/>
</g>
</g>
</g>
<g transform="matrix(1 0 0 1 558.8236 484.4118)" style="" id="129813">
		
<path xml:space="preserve" font-family="Amarante" font-size="100" font-style="normal" font-weight="normal" style="stroke: none; stroke-width: 1; stroke-dasharray: none; stroke-linecap: butt; stroke-dashoffset: 0; stroke-linejoin: miter; stroke-miterlimit: 4; is-custom-font: none; font-file-url: none; fill: rgb(0,0,0); fill-rule: nonzero; opacity: 1; white-space: pre;" d="M-325.32-32.50Q-324.37-34.55-323.85-36.55Q-323.34-38.56-323.34-40.44Q-323.34-42.32-324.07-43.34L-324.07-43.34L-308.98-43.34Q-310.11-41.73-310.89-39.78L-310.89-39.78L-312.70-35.33Q-317.14-24.59-325.63-19.17L-325.63-19.17Q-325.10-2.86-318.65 11.59L-318.65 11.59Q-312.84 24.82-304.98 31.41L-304.98 31.41L-321.83 31.41Q-328.61 24.19-331.45 5.14L-331.45 5.14Q-332.52-1.84-333.25-11.26L-333.25-11.26Q-333.45-13.75-334.74-15.09Q-336.04-16.44-338.38-16.44Q-340.72-16.44-341.65-16.00Q-342.58-15.56-343.07-14.68L-343.07-14.68Q-343.90-13.17-343.90-7.65L-343.90-7.65Q-343.90 24.14-342.33 29.36L-342.33 29.36Q-342.04 30.34-341.60 31.41L-341.60 31.41L-357.96 31.41Q-356.40 27.70-356.13 25.21Q-355.86 22.72-355.66 19.89L-355.66 19.89Q-355.27 14.13-355.27 4.41L-355.27 4.41Q-355.27-7.26-355.66-16.97L-355.66-16.97L-356.20-30.40Q-356.49-37.78-358.06-40.80L-358.06-40.80Q-358.69-42.02-359.62-43.29L-359.62-43.29L-340.48-43.29Q-342.43-40.75-343.02-38.56L-343.02-38.56Q-343.90-34.99-343.90-31.45Q-343.90-27.91-343.75-26.35Q-343.60-24.79-343.07-23.76L-343.07-23.76Q-341.94-21.81-339.06-21.78Q-336.18-21.76-334.25-22.66Q-332.32-23.57-330.66-25.08Q-329.00-26.59-327.64-28.52Q-326.27-30.45-325.32-32.50ZM-267.24 5.34L-267.24 5.34L-267.38 14.71Q-267.38 23.46-265.77 26.63L-265.77 26.63Q-264.79 28.53-263.48 29.56L-263.48 29.56L-261.18 31.41L-275.34 31.41L-276.86 25.75Q-282.37 32.39-292.58 32.39L-292.58 32.39Q-298.39 32.39-301.95 28.48L-301.95 28.48Q-305.08 24.97-305.08 20.18Q-305.08 15.40-302.81 11.83Q-300.54 8.27-296.83 5.93L-296.83 5.93Q-289.50 1.38-278.42 1.19L-278.42 1.19L-278.42 0.65Q-278.42-11.21-282.08-13.26L-282.08-13.26Q-283.40-14.00-285.47-14.00Q-287.55-14.00-289.60-12.63Q-291.65-11.26-293.31-9.11L-293.31-9.11Q-296.63-4.77-298.05 1.14L-298.05 1.14Q-302.39-1.45-302.39-8.77L-302.39-8.77Q-302.39-11.75-301.61-15.46L-301.61-15.46Q-299.76-15.46-298.10-16.00L-298.10-16.00L-294.34-17.17Q-288.82-18.88-283.54-18.88Q-278.27-18.88-275.12-17.32Q-271.97-15.75-270.21-12.68L-270.21-12.68Q-267.24-7.45-267.24 5.34ZM-294.53 21.16Q-294.53 24.19-293.14 25.85Q-291.75 27.51-289.65 27.51Q-287.55 27.51-285.60 26.41Q-283.64 25.31-282.08 23.41L-282.08 23.41Q-278.42 19.06-278.42 13.20L-278.42 13.20L-278.42 5.97Q-285.25 6.61-289.70 10.52L-289.70 10.52Q-294.53 14.71-294.53 21.16L-294.53 21.16ZM-239.40 31.41L-253.42 31.41Q-251.17 23.70-251.17 4.90L-251.17 4.90Q-251.17-8.48-253.52-13.36L-253.52-13.36Q-254.10-14.58-254.83-15.66L-254.83-15.66L-256.45-17.90L-239.50-17.90Q-240.23-15.46-240.48-13.31L-240.48-13.31L-240.87-9.80Q-234.96-18.88-225.83-18.88L-225.83-18.88Q-219.92-18.88-216.60-14.29L-216.60-14.29Q-213.38-9.80-213.38-2.13L-213.38-2.13L-213.38 3.09Q-213.38 16.52-213.13 19.50Q-212.89 22.48-212.74 24.04Q-212.60 25.60-212.40 26.82L-212.40 26.82Q-212.06 29.12-211.38 31.41L-211.38 31.41L-225.68 31.41Q-223.44 23.70-223.44 4.90L-223.44 4.90Q-223.44-2.62-224.39-5.40Q-225.34-8.19-226.66-9.38Q-227.98-10.58-230.13-10.58L-230.13-10.58Q-234.08-10.58-237.30-7.45L-237.30-7.45Q-240.09-4.77-241.55-0.62L-241.55-0.62Q-241.65 0.70-241.65 2.12L-241.65 2.12L-241.65 4.90Q-241.65 23.70-239.40 31.41L-239.40 31.41ZM-170.17 31.41L-170.85 27.56Q-176.17 32.39-184.37 32.39L-184.37 32.39Q-191.89 32.39-196.24 28.04L-196.24 28.04Q-200.73 23.55-200.73 15.37Q-200.73 7.20-198.34 1.07Q-195.95-5.06-192.04-9.21L-192.04-9.21Q-184.33-17.41-173.10-17.85L-173.10-17.85Q-173.49-32.89-174.10-35.11Q-174.71-37.34-175.32-38.63Q-175.93-39.92-176.71-41.00L-176.71-41.00L-178.37-43.29L-160.55-43.29Q-161.91-38.36-162.13-33.72Q-162.35-29.08-162.45-25.57Q-162.55-22.05-162.60-18.20L-162.60-18.20Q-162.74-11.75-162.74-5.38Q-162.74 0.99-162.72 4.27Q-162.70 7.54-162.60 10.47L-162.60 10.47Q-162.35 21.45-161.77 23.53Q-161.18 25.60-160.57 26.85Q-159.96 28.09-159.18 29.17L-159.18 29.17L-157.52 31.41L-170.17 31.41ZM-173.02 13.49Q-172.80 5.97-172.80-0.59Q-172.80-7.16-172.95-13.12L-172.95-13.12Q-180.03-12.04-184.28-4.77L-184.28-4.77Q-188.53 2.46-188.53 13.45L-188.53 13.45Q-188.53 19.94-187.52 22.53Q-186.52 25.12-185.13 26.31Q-183.74 27.51-181.76 27.51Q-179.79 27.51-178.30 26.70Q-176.81 25.90-175.68 24.33L-175.68 24.33Q-173.24 21.01-173.02 13.49ZM-109.42-15.66L-109.42-13.31L-110.16 8.51Q-110.16 21.84-107.81 26.82L-107.81 26.82Q-106.98 28.63-104.88 31.41L-104.88 31.41L-118.46 31.41Q-119.58 28.09-119.92 23.02L-119.92 23.02Q-125.59 32.39-134.52 32.39L-134.52 32.39Q-140.67 32.39-143.95 27.80L-143.95 27.80Q-147.17 23.36-147.17 15.59L-147.17 15.59L-147.17 9.00Q-147.17 6.80-147.17 4.51L-147.17 4.51L-147.27 0.07Q-147.31-4.18-147.53-6.55Q-147.75-8.92-148.02-10.50Q-148.29-12.09-148.68-13.34Q-149.07-14.58-149.56-15.66L-149.56-15.66L-150.63-17.90L-136.52-17.90Q-136.47-17.12-136.47-16.44L-136.47-16.44L-136.47-15.02Q-136.47-15.02-137.30 9.49L-137.30 9.49Q-137.30 16.67-136.38 19.26Q-135.45 21.84-134.16 22.97Q-132.86 24.09-130.71 24.09L-130.71 24.09Q-124.90 24.09-121.29 17.74L-121.29 17.74Q-120.31 15.94-119.68 14.08L-119.68 14.08Q-119.58 11.35-119.58 7.88L-119.58 7.88Q-119.58-9.94-122.22-15.66L-122.22-15.66L-123.29-17.90L-109.37-17.90Q-109.42-16.68-109.42-15.66L-109.42-15.66ZM-79.44 31.41L-93.85 31.41Q-91.60 23.70-91.60 4.90L-91.60 4.90Q-91.60-8.48-93.75-13.36L-93.75-13.36Q-94.63-15.36-96.87-17.90L-96.87-17.90L-79.54-17.90Q-80.42-14.83-80.96-9.46L-80.96-9.46Q-76.37-15.22-68.16-17.61L-68.16-17.61Q-64.65-18.63-63.04-20.83L-63.04-20.83Q-61.43-16.97-61.43-14.19Q-61.43-11.41-61.72-9.04Q-62.01-6.67-62.60-4.43L-62.60-4.43Q-63.87 0.41-65.97 3.09L-65.97 3.09Q-67.77-6.43-71.58-8.04L-71.58-8.04Q-75.98-9.94-80.18-2.86L-80.18-2.86Q-81.05-1.40-81.64 0.26L-81.64 0.26Q-81.69 1.38-81.69 2.56Q-81.69 3.73-81.69 4.90L-81.69 4.90Q-81.69 23.70-79.44 31.41L-79.44 31.41ZM-18.55 5.34L-18.55 5.34L-18.70 14.71Q-18.70 23.46-17.09 26.63L-17.09 26.63Q-16.11 28.53-14.79 29.56L-14.79 29.56L-12.50 31.41L-26.66 31.41L-28.17 25.75Q-33.69 32.39-43.90 32.39L-43.90 32.39Q-49.71 32.39-53.27 28.48L-53.27 28.48Q-56.40 24.97-56.40 20.18Q-56.40 15.40-54.13 11.83Q-51.86 8.27-48.14 5.93L-48.14 5.93Q-40.82 1.38-29.74 1.19L-29.74 1.19L-29.74 0.65Q-29.74-11.21-33.40-13.26L-33.40-13.26Q-34.72-14.00-36.79-14.00Q-38.87-14.00-40.92-12.63Q-42.97-11.26-44.63-9.11L-44.63-9.11Q-47.95-4.77-49.37 1.14L-49.37 1.14Q-53.71-1.45-53.71-8.77L-53.71-8.77Q-53.71-11.75-52.93-15.46L-52.93-15.46Q-51.07-15.46-49.41-16.00L-49.41-16.00L-45.65-17.17Q-40.14-18.88-34.86-18.88Q-29.59-18.88-26.44-17.32Q-23.29-15.75-21.53-12.68L-21.53-12.68Q-18.55-7.45-18.55 5.34ZM-45.85 21.16Q-45.85 24.19-44.46 25.85Q-43.07 27.51-40.97 27.51Q-38.87 27.51-36.91 26.41Q-34.96 25.31-33.40 23.41L-33.40 23.41Q-29.74 19.06-29.74 13.20L-29.74 13.20L-29.74 5.97Q-36.57 6.61-41.02 10.52L-41.02 10.52Q-45.85 14.71-45.85 21.16L-45.85 21.16ZM9.13-37.43L9.13-37.43Q8.11-33.67 8.11-28.42Q8.11-23.18 8.33-21.71Q8.54-20.25 9.03-19.37L9.03-19.37Q9.96-17.90 12.65-17.90L12.65-17.90L25.73-17.90Q25.73-15.17 24.41-13.70L24.41-13.70Q22.02-11.07 18.55-11.07L18.55-11.07Q16.85-11.07 15.53-11.55L15.53-11.55Q13.13-12.53 11.82-12.53Q10.50-12.53 9.67-12.02Q8.84-11.51 8.35-10.53L8.35-10.53Q7.47-8.77 7.47-2.86Q7.47 3.04 7.84 9.25Q8.20 15.45 9.67 19.62Q11.13 23.80 14.11 25.90Q17.09 28.00 22.31 28.00L22.31 28.00Q22.31 29.51 20.26 31.61L20.26 31.61Q19.73 32.20 19.34 32.39L19.34 32.39Q10.69 32.39 6.40 30.34L6.40 30.34Q1.46 27.90-0.63 21.65L-0.63 21.65Q-2.73 15.30-2.73 2.85L-2.73 2.85Q-2.73-8.04-3.32-10.02Q-3.91-11.99-4.39-12.63L-4.39-12.63Q-4.98-13.36-7.23-14.44L-7.23-14.44Q-4.20-16.73-1.22-22.98L-1.22-22.98L1.22-28.11Q3.81-33.97 5.64-35.70Q7.47-37.43 9.13-37.43ZM67.19 5.34L67.19 5.34L67.04 14.71Q67.04 23.46 68.65 26.63L68.65 26.63Q69.63 28.53 70.95 29.56L70.95 29.56L73.24 31.41L59.08 31.41L57.57 25.75Q52.05 32.39 41.85 32.39L41.85 32.39Q36.04 32.39 32.47 28.48L32.47 28.48Q29.35 24.97 29.35 20.18Q29.35 15.40 31.62 11.83Q33.89 8.27 37.60 5.93L37.60 5.93Q44.92 1.38 56.01 1.19L56.01 1.19L56.01 0.65Q56.01-11.21 52.34-13.26L52.34-13.26Q51.03-14.00 48.95-14.00Q46.88-14.00 44.82-12.63Q42.77-11.26 41.11-9.11L41.11-9.11Q37.79-4.77 36.38 1.14L36.38 1.14Q32.03-1.45 32.03-8.77L32.03-8.77Q32.03-11.75 32.81-15.46L32.81-15.46Q34.67-15.46 36.33-16.00L36.33-16.00L40.09-17.17Q45.61-18.88 50.88-18.88Q56.15-18.88 59.30-17.32Q62.45-15.75 64.21-12.68L64.21-12.68Q67.19-7.45 67.19 5.34ZM39.89 21.16Q39.89 24.19 41.28 25.85Q42.68 27.51 44.78 27.51Q46.88 27.51 48.83 26.41Q50.78 25.31 52.34 23.41L52.34 23.41Q56.01 19.06 56.01 13.20L56.01 13.20L56.01 5.97Q49.17 6.61 44.73 10.52L44.73 10.52Q39.89 14.71 39.89 21.16L39.89 21.16ZM152.59 13.35L152.59 13.35Q153.91 15.25 153.91 17.94Q153.91 20.62 153.54 22.58Q153.17 24.53 152.54 26.29L152.54 26.29Q151.07 30.14 148.83 31.41L148.83 31.41L109.57 31.41Q113.43 29.02 114.60 27.26L114.60 27.26Q116.85 23.94 116.85 18.67L116.85 18.67Q116.80 5.68 116.80-4.82L116.80-4.82L116.80-30.40Q116.80-37.48 114.45-40.80L114.45-40.80Q113.62-42.02 112.40-43.29L112.40-43.29L132.47-43.29Q129.59-39.14 129.20-34.75L129.20-34.75Q129.10-33.28 129.10-31.53L129.10-31.53L129.10 13.20Q129.10 22.33 130.08 24.11Q131.05 25.90 132.42 26.21Q133.79 26.53 136.57 26.53Q139.36 26.53 141.85 25.55Q144.34 24.58 146.29 22.82L146.29 22.82Q149.61 19.79 152.59 13.35ZM173.41-31.04Q172.41-29.43 171.00-28.33Q169.58-27.23 167.77-27.23Q165.97-27.23 164.55-28.33Q163.13-29.43 162.16-31.04L162.16-31.04Q160.16-34.36 160.16-38.07L160.16-38.07Q160.16-42.56 164.26-44.07L164.26-44.07Q165.72-44.61 167.82-44.61L167.82-44.61Q173.63-44.61 175.05-40.51L175.05-40.51Q175.49-39.34 175.49-37.90Q175.49-36.46 174.95-34.55Q174.41-32.65 173.41-31.04ZM174.56 31.41L160.16 31.41Q162.40 23.70 162.40 4.90L162.40 4.90Q162.40-8.33 160.06-13.31L160.06-13.31Q159.47-14.58 158.74-15.66L158.74-15.66L157.13-17.90L174.46-17.90Q172.31-9.85 172.31 6.93Q172.31 23.70 174.56 31.41L174.56 31.41ZM212.01 30.24L212.01 30.24Q207.28 32.39 202.69 32.39Q198.10 32.39 195.07 31.22Q192.04 30.05 189.89 27.80L189.89 27.80Q185.40 23.11 185.40 14.86L185.40 14.86Q185.40-1.06 194.53-9.94L194.53-9.94Q202.69-17.90 214.16-17.90L214.16-17.90L225.29-17.90Q223.93-13.17 223.73-8.82Q223.54-4.47 223.46-1.72Q223.39 1.04 223.34 3.87L223.34 3.87Q223.24 9.54 223.24 15.45Q223.24 21.36 222.31 26.90Q221.39 32.44 219.85 36.59Q218.31 40.74 216.33 43.67Q214.36 46.60 212.21 48.60L212.21 48.60Q208.69 51.87 204.05 53.39L204.05 53.39Q203.08 53.00 202.17 51.97Q201.27 50.95 201.07 49.97L201.07 49.97Q206.64 47.72 209.91 38.79L209.91 38.79Q211.18 35.32 212.01 30.24ZM213.09 15.11L213.09 15.11L213.23 0.46Q213.23-8.38 212.60-12.92L212.60-12.92Q205.66-11.55 201.66-4.72L201.66-4.72Q197.61 2.26 197.61 12.91L197.61 12.91Q197.61 19.50 198.61 22.23Q199.61 24.97 201.00 26.24Q202.39 27.51 204.37 27.51Q206.35 27.51 207.86 26.73Q209.38 25.95 210.55 24.38L210.55 24.38Q213.09 21.01 213.09 15.11ZM277.98 31.41L263.57 31.41Q265.82 23.70 265.82 4.90L265.82 4.90Q265.82-2.96 264.99-5.57Q264.16-8.19 262.92-9.38Q261.67-10.58 259.59-10.58Q257.52-10.58 255.83-9.80Q254.15-9.02 252.83-7.75L252.83-7.75Q250.34-5.40 248.78-1.50L248.78-1.50L248.78 7.83Q248.78 21.55 249.32 24.82L249.32 24.82Q249.95 29.12 250.63 31.41L250.63 31.41L236.23 31.41Q237.40 27.31 237.79 20.53L237.79 20.53Q238.67 3.53 238.67-4.50Q238.67-12.53 238.62-15.49Q238.57-18.44 238.48-21.37L238.48-21.37Q238.23-32.01 237.52-34.72Q236.82-37.43 236.21-38.68Q235.60-39.92 234.86-40.95L234.86-40.95L233.20-43.24L251.03-43.24Q249.66-38.31 249.44-34.06Q249.22-29.82 249.12-27.16Q249.02-24.49 248.93-21.56L248.93-21.56Q248.78-14.73 248.78-9.50L248.78-9.50Q252.64-16.00 258.98-18.10L258.98-18.10Q261.23-18.88 264.01-18.88Q266.80-18.88 269.07-17.68Q271.34-16.49 272.85-14.29L272.85-14.29Q275.98-9.85 275.98-2.13L275.98-2.13L275.98 3.09Q275.98 18.04 276.39 21.82Q276.81 25.60 276.95 26.82L276.95 26.82Q277.29 28.97 277.98 31.41L277.98 31.41ZM304.74-37.43L304.74-37.43Q303.71-33.67 303.71-28.42Q303.71-23.18 303.93-21.71Q304.15-20.25 304.64-19.37L304.64-19.37Q305.57-17.90 308.25-17.90L308.25-17.90L321.34-17.90Q321.34-15.17 320.02-13.70L320.02-13.70Q317.63-11.07 314.16-11.07L314.16-11.07Q312.45-11.07 311.13-11.55L311.13-11.55Q308.74-12.53 307.42-12.53Q306.10-12.53 305.27-12.02Q304.44-11.51 303.96-10.53L303.96-10.53Q303.08-8.77 303.08-2.86Q303.08 3.04 303.44 9.25Q303.81 15.45 305.27 19.62Q306.74 23.80 309.72 25.90Q312.70 28.00 317.92 28.00L317.92 28.00Q317.92 29.51 315.87 31.61L315.87 31.61Q315.33 32.20 314.94 32.39L314.94 32.39Q306.30 32.39 302.00 30.34L302.00 30.34Q297.07 27.90 294.97 21.65L294.97 21.65Q292.87 15.30 292.87 2.85L292.87 2.85Q292.87-8.04 292.29-10.02Q291.70-11.99 291.21-12.63L291.21-12.63Q290.63-13.36 288.38-14.44L288.38-14.44Q291.41-16.73 294.38-22.98L294.38-22.98L296.83-28.11Q299.41-33.97 301.25-35.70Q303.08-37.43 304.74-37.43ZM357.13-20.78L357.13-20.78Q358.45-17.85 358.45-14.88Q358.45-11.90 358.18-9.94Q357.91-7.99 357.37-6.18L357.37-6.18Q356.15-2.08 353.91 0.12L353.91 0.12Q352.39-7.45 350.61-9.70Q348.83-11.95 347.05-12.73Q345.26-13.51 343.26-13.51Q341.26-13.51 339.99-13.12Q338.72-12.73 337.79-11.99L337.79-11.99Q335.69-10.38 335.69-8.33Q335.69-6.28 336.72-4.79Q337.74-3.30 339.43-2.01Q341.11-0.71 343.26 0.51L343.26 0.51L347.66 3.00Q353.32 6.17 355.42 8.27L355.42 8.27Q359.57 12.42 359.57 17.01L359.57 17.01Q359.57 23.02 355.47 27.12L355.47 27.12Q350.29 32.39 339.94 32.39L339.94 32.39Q330.52 32.39 325.78 28.00L325.78 28.00Q324.41 26.73 323.83 25.46L323.83 25.46Q324.22 21.79 327.10 18.57L327.10 18.57Q329.88 15.45 332.52 14.96L332.52 14.96Q332.32 15.59 332.32 16.86Q332.32 18.13 333.06 20.01Q333.79 21.89 335.16 23.50L335.16 23.50Q338.23 27.21 342.09 27.21Q345.95 27.21 347.75 25.46Q349.56 23.70 349.56 21.45Q349.56 19.21 348.54 17.69Q347.51 16.18 345.83 14.86Q344.14 13.54 341.99 12.32L341.99 12.32L337.60 9.83Q331.98 6.51 329.88 4.17L329.88 4.17Q325.68-0.52 325.68-6.04L325.68-6.04Q325.68-11.85 330.57-15.46L330.57-15.46Q335.21-18.88 342.14-18.88L342.14-18.88L350.73-18.29Q353.86-18.29 355.08-19.05Q356.30-19.81 357.13-20.78Z"/></g>
<g transform="matrix(0.3259 0 0 0.3343 117.8107 467.0294)" id="41869">
<path style="stroke: none; stroke-width: 1; stroke-dasharray: none; stroke-linecap: butt; stroke-dashoffset: 0; stroke-linejoin: miter; stroke-miterlimit: 4; is-custom-font: none; font-file-url: none; fill: rgb(13,142,255); fill-rule: nonzero; opacity: 1;" vector-effect="non-scaling-stroke" transform=" translate(-230.0005, -230)" d="M 288.863 342.054 h -33.493 V 200 h 30 v 10 h 30 v -50 h -30 v 10 h -30 v -40 h 25 v -15 h 20 V 85 h -20 V 70 h -84.581 c -12.743 -40.57 -50.643 -70 -95.419 -70 v 200 c 44.776 0 82.676 -29.43 95.419 -70 h 29.581 v 212.054 h -33.493 L 121.108 460 h 34.986 l 52.768 -87.946 h 16.507 V 460 h 30 v -87.946 h 16.507 L 324.645 460 h 34.986 L 288.863 342.054 z" stroke-linecap="round"/>
</g>
</svg>